#!OML:ASF F:\VICON\USERDATA\INSTALL\rory3\rory3.ASF
:FULLY-SPECIFIED
:DEGREES
19
root -0.048395711488536886 17.898983427615082 -10.20612458730042 -5.760002982122881 2.8190988406621367 -3.9251067375005224
lfemur -14.224440756299735 -4.2936191195283095 -20.595740541279856
ltibia 23.255337398862146
lfoot -12.566537883575503 -5.2963234010982125
ltoes 2.811901497802911
rfemur -4.734464068104269 2.6546577425330486 23.140354019832976
rtibia 56.34635398812699
rfoot 2.105827064540076 -11.855098251309743
rtoes 9.36379423573935
lowerback 10.291918744620945 0.9161833880404922 2.757621653384833
upperback 0.8344061892093695 1.6335500895954174 1.143270186062456
thorax -4.679967082147117 0.7388934881141116 -0.42773028030186067
lowerneck -16.112108456493043 -3.4336570958766406 -1.5742464100789346
upperneck 21.917757762855263 -4.597797166466042 2.0450544345862496
head 9.813000539821054 -2.107871953037104 0.19602371908928204
lclavicle -2.7971981182627257e-15 -4.160076107114572e-16
lhumerus -34.34455049688695 2.055176629398976 84.6234881323825
lradius 23.2435422040815
lwrist 4.405108285264934
lhand -28.003456396289263 22.181212150481564
lfingers 7.1250199999999975
lthumb -1.3892619925675547 52.15954348984622
rclavicle -2.7971981182627257e-15 -4.160076107114572e-16
rhumerus -27.355941252170513 -11.918767182730209 -82.81835422781626
rradius 22.217539375566
rwrist 9.54322827711541
rhand -19.390157587419782 23.808361781646173
rfingers 7.1250199999999975
rthumb 6.928610171710362 -6.153556490178202
20
root -0.053486680836620004 17.838487252301736 -9.331056217137368 -5.562796645678391 2.617321875400747 -2.003894284267069
lfemur -13.28641284758956 -4.472171544340428 -22.38720308773084
ltibia 26.216722457983995
lfoot -15.754674841558419 -1.6935251417071109
ltoes 5.383939363147615
rfemur -8.347449437376092 1.6442194408674045 19.45957479257034
rtibia 60.16991025177041
rfoot 2.0560470670028774 -9.304046643745735
rtoes 8.630345242188096
lowerback 10.44233029384724 0.8744060829326007 0.6790584860451412
upperback 0.9287596413050238 1.2043921502309476 0.8900240520909777
thorax -4.676651266221561 0.5907044560068656 0.18521279926853407
lowerneck -16.42676767129766 -3.407979915986207 -1.147002069608619
upperneck 21.83202659043795 -4.578507043733999 1.9755009073917038
head 9.86628498126347 -2.095244375914516 0.11925991427483064
lclavicle -2.7971981937090553e-15 -4.160075995117041e-16
lhumerus -32.57166633756072 0.6256461326527207 84.64494235360307
lradius 23.472899456551783
lwrist 5.806443274369968
lhand -27.028677433062047 21.325912611866393
lfingers 7.1250199999999975
lthumb -0.44770028244573457 51.29581485115899
rclavicle -2.7971981937090553e-15 -4.160075995117041e-16
rhumerus -27.629026699384024 -13.034979644130651 -82.90304944591216
rradius 20.53848867644143
rwrist 11.537784327685113
rhand -20.901144323620837 18.8647705482267
rfingers 7.1250199999999975
rthumb 5.469672390632375 -11.275120574400212
21
root 0.09250692386164705 17.769095959921433 0.6820102345669028 -4.222644221318161 0.8794104427576732 1.3401476212525951
lfemur -11.05060942157784 -2.031697113134493 -25.01419764069979
ltibia 32.06908195968743
lfoot -15.574627448204325 6.00513251623558
ltoes 3.916639579312172
rfemur -12.77457006589259 1.104906227564613 17.707534663919517
rtibia 67.73663825565112
rfoot -2.6759738651583236 -7.240682516820961
rtoes 11.69114227261066
lowerback 10.703659121555013 1.4407110845903288 -1.9817340141098299
upperback 0.8500190271811737 1.3992852436767822 0.3593679020312579
thorax -5.1681802735247535 0.7906061525949257 1.098756002480929
lowerneck -16.78485915592535 -3.3081289609333226 -1.4744909608038603
upperneck 21.16688983024997 -4.3856855176207885 1.9583710633948777
head 9.595513355475088 -2.0327945025368668 0.38350471227932814
lclavicle -2.02304068745525e-15 1.0036456051792568e-16
lhumerus -29.815191200163095 -3.1347290245422554 85.20792660261432
lradius 25.032403403346
lwrist 3.8146543497988965
lhand -27.615779660042467 26.29909926556283
lfingers 7.1250199999999975
lthumb -1.0147684310365637 56.26826001773323
rclavicle -2.02304068745525e-15 1.0036456051792568e-16
rhumerus -27.215753431856385 -18.648784570659675 -81.89809512014797
rradius 20.54425742312129
rwrist 10.774591573774634
rhand -18.468813677510592 20.672067522866364
rfingers 7.1250199999999975
rthumb 7.817581947377284 -9.831956144253663
22
root 0.16022281984088782 17.731817664597475 -2.7547801259436113 -3.7590315946268404 0.9216739557051108 2.5779171886230228
lfemur -9.001426048625689 -1.8765903931873893 -25.678046026801425
ltibia 32.99902281970905
lfoot -18.279171458943544 9.908562590275565
ltoes 2.732209739798782
rfemur -17.813802842134507 0.6498772068242045 15.9882843106097
rtibia 71.61573781408265
rfoot -4.448467218594942 -6.5706135351965305
rtoes 10.734409021903621
lowerback 10.915860337357788 1.3045014170492948 -3.355725989757949
upperback 0.8745224328401529 1.0109374297106304 0.20425500336123315
thorax -5.3039679787838105 0.6408937527272169 1.690658345791144
lowerneck -16.998702399227643 -3.23373574663424 -1.3682592001564924
upperneck 20.83831315348326 -4.275050075140558 2.0882968453281237
head 9.50308649467504 -1.9865333277850465 0.4457362786588025
lclavicle -1.8847450878188014e-15 1.9260935440264046e-16
lhumerus -27.526673314744095 -5.364728850898354 85.37208364398275
lradius 25.171114992225046
lwrist 3.434024465872682
lhand -27.33330820120231 25.68933228524402
lfingers 7.1250199999999975
lthumb -0.741943396093369 55.65764501861844
rclavicle -1.8847450878188014e-15 1.9260935440264046e-16
rhumerus -27.819081647084886 -20.083126320599312 -81.85671421166452
rradius 19.75535701930673
rwrist 9.464782698304663
rhand -18.13612127706231 20.79159892115878
rfingers 7.1250199999999975
rthumb 8.138572738438071 -9.49292719622926
